<?xml version="1.0" encoding="utf-8"?>
<!-- Generator: Adobe Illustrator 15.1.0, SVG Export Plug-In . SVG Version: 6.00 Build 0)  -->
<!DOCTYPE svg PUBLIC "-//W3C//DTD SVG 1.1//EN" "http://www.w3.org/Graphics/SVG/1.1/DTD/svg11.dtd">
<svg version="1.1" id="radio" xmlns="http://www.w3.org/2000/svg" xmlns:xlink="http://www.w3.org/1999/xlink" x="0px" y="0px"
	 width="100px" height="91.759px" viewBox="0.18 -7.243 100 91.759" enable-background="new 0.18 -7.243 100 91.759"
	 xml:space="preserve">
<path d="M96.166,21.791h-5.337v-0.704h-1.338V-5.917l1.354-1.326h-3.728l1.36,1.357v26.974H87.14v0.704H4.194
	c-2.216,0-4.014,1.794-4.014,4.01v52.666c0,2.212,1.798,4.007,4.014,4.007h6.149l0.46,2.042h1.299l0.46-2.042h75.235l0.456,2.042
	h1.307l0.457-2.042h6.148c2.212,0,4.014-1.795,4.014-4.007V25.801C100.18,23.585,98.378,21.791,96.166,21.791z M98.788,78.467
	c0,1.438-1.176,2.614-2.622,2.614H4.194c-1.442,0-2.618-1.176-2.618-2.614V25.801c0-1.442,1.175-2.618,2.618-2.618h91.972
	c1.446,0,2.622,1.176,2.622,2.618V78.467z"/>
<path d="M72.909,53.703c-2.885,0-5.244-2.235-5.453-5.066H57.131c0.225,8.516,7.216,15.368,15.778,15.368
	c8.562,0,15.554-6.853,15.777-15.368H78.361C78.152,51.459,75.794,53.703,72.909,53.703z"/>
<path d="M72.909,32.43c-8.562,0-15.554,6.856-15.778,15.364h10.325c0.209-2.823,2.568-5.058,5.453-5.058s5.243,2.227,5.46,5.058
	h10.317C88.463,39.286,81.471,32.43,72.909,32.43z"/>
<path d="M94.526,26.223H5.837c-0.924,0-1.678,0.75-1.678,1.674v48.467c0,0.929,0.754,1.679,1.678,1.679h88.689
	c0.928,0,1.671-0.75,1.671-1.679V27.897C96.197,26.973,95.454,26.223,94.526,26.223z M63.435,74.562c-1.64,0-2.97-1.33-2.97-2.978
	c0-1.64,1.33-2.971,2.97-2.971s2.97,1.331,2.97,2.971C66.404,73.232,65.074,74.562,63.435,74.562z M82.384,74.562
	c-1.64,0-2.971-1.33-2.971-2.978c0-1.64,1.331-2.971,2.971-2.971s2.97,1.331,2.97,2.971C85.354,73.232,84.023,74.562,82.384,74.562z
	 M72.909,65.954c-9.8,0-17.735-7.936-17.735-17.742c0-9.792,7.936-17.735,17.735-17.735c9.799,0,17.734,7.943,17.734,17.735
	C90.644,58.018,82.708,65.954,72.909,65.954z"/>
</svg>
