<svg xmlns="http://www.w3.org/2000/svg" xmlns:xlink="http://www.w3.org/1999/xlink" version="1.1" id="Layer_1" x="0px" y="0px" width="100px" height="100px" viewBox="0 0 100 100" enable-background="new 0 0 100 100" xml:space="preserve">
<g>
	<path d="M79.497,19.805h-2.53l4.84-12.536l0.02-0.042c0.621-0.131,1.174-0.55,1.448-1.175c0.446-1.031-0.024-2.226-1.052-2.668   C81.197,2.935,80,3.405,79.555,4.429c-0.274,0.628-0.202,1.318,0.129,1.869l-0.019,0.041l-6.539,13.466h-4.743L61.846,6.336   l-0.019-0.045c0.331-0.544,0.402-1.234,0.129-1.862c-0.447-1.024-1.643-1.494-2.67-1.045c-1.026,0.442-1.496,1.637-1.05,2.668   c0.271,0.625,0.827,1.043,1.448,1.175l0.02,0.042l4.841,12.536H20.502c-7.699,0-13.965,6.269-13.965,13.964v30.692   c0,7.052,5.252,12.891,12.044,13.828l-1.176,11.05l-0.048,0.226c-0.229,1.108,0.484,2.207,1.598,2.436l0.225,0.046   c1.113,0.229,2.201-0.484,2.434-1.598l0.048-0.223l3.523-11.24l0.07-0.338c0.018-0.076,0.025-0.148,0.034-0.221H74.71   c0.01,0.072,0.018,0.145,0.034,0.221l0.07,0.338l3.522,11.24l0.05,0.223c0.23,1.113,1.32,1.826,2.434,1.598L81.045,92   c1.113-0.229,1.825-1.327,1.597-2.436l-0.048-0.226l-1.176-11.05c6.793-0.938,12.045-6.776,12.045-13.828V33.769   C93.463,26.073,87.196,19.805,79.497,19.805z M89.688,64.461c0,5.618-4.572,10.19-10.19,10.19H20.502   c-5.618,0-10.19-4.572-10.19-10.19V33.769c0-5.616,4.572-10.19,10.19-10.19h58.995c5.618,0,10.19,4.574,10.19,10.19V64.461z"/>
	<path d="M64.403,29.242H20.502c-2.5,0-4.528,2.028-4.528,4.526v30.692c0,2.505,2.028,4.532,4.528,4.532h43.901   c2.501,0,4.528-2.027,4.528-4.532V33.769C68.932,31.27,66.904,29.242,64.403,29.242z"/>
	<path d="M79.118,29.242h-0.501c-2.503,0-4.526,2.028-4.526,4.526v0.505c0,2.499,2.023,4.524,4.526,4.524h0.501   c2.502,0,4.53-2.026,4.53-4.524v-0.505C83.648,31.27,81.62,29.242,79.118,29.242z"/>
	<path d="M79.118,44.336h-0.501c-2.503,0-4.526,2.026-4.526,4.528v0.501c0,2.503,2.023,4.53,4.526,4.53h0.501   c2.502,0,4.53-2.027,4.53-4.53v-0.501C83.648,46.362,81.62,44.336,79.118,44.336z"/>
	<path d="M79.118,59.43h-0.501c-2.503,0-4.526,2.024-4.526,4.532v0.499c0,2.505,2.023,4.532,4.526,4.532h0.501   c2.502,0,4.53-2.027,4.53-4.532v-0.499C83.648,61.454,81.62,59.43,79.118,59.43z"/>
</g>
</svg>