<svg xmlns="http://www.w3.org/2000/svg" xmlns:xlink="http://www.w3.org/1999/xlink" version="1.1" id="Layer_1" x="0px" y="0px" width="100px" height="100px" viewBox="0 0 100 100" enable-background="new 0 0 100 100" xml:space="preserve">
<g>
	<path d="M74.975,59.494c12.604,0,22.819-10.215,22.819-22.817c0-12.603-10.216-22.819-22.819-22.819   c-12.602,0-22.816,10.217-22.816,22.819C52.158,49.279,62.373,59.494,74.975,59.494L74.975,59.494z M25.166,13.858   c-12.603,0-22.818,10.217-22.818,22.819c0,12.602,10.216,22.817,22.818,22.817c12.602,0,22.818-10.215,22.818-22.817   C47.984,24.075,37.768,13.858,25.166,13.858L25.166,13.858z M16.944,65.549v20.405h66.246V65.549H16.944L16.944,65.549z    M55.527,21.671c4.493-5.813,11.533-9.557,19.447-9.557c13.566,0,24.562,10.996,24.562,24.562c0,9.184-5.042,17.194-12.511,21.406   v29.229c0,1.294-0.99,2.481-2.378,2.481H15.484c-1.386,0-2.378-1.188-2.378-2.481V58.079C5.643,53.865,0.604,45.859,0.604,36.677   c0-13.567,10.997-24.562,24.562-24.562c7.916,0,14.956,3.744,19.448,9.557H55.527L55.527,21.671z M81.152,36.677   c0,3.412-2.765,6.177-6.178,6.177c-3.411,0-6.177-2.765-6.177-6.177c0-3.414,2.766-6.18,6.177-6.18   C78.388,30.498,81.152,33.263,81.152,36.677L81.152,36.677z M53.809,32.287c0.459-2.021,1.226-4.01,2.316-5.899   c1.091-1.89,2.43-3.549,3.951-4.958l6.322,6.832c-0.853,0.789-1.603,1.718-2.214,2.777c-0.612,1.061-1.041,2.174-1.299,3.307   L53.809,32.287L53.809,32.287z M88.845,20.836c1.522,1.409,2.86,3.067,3.952,4.958c1.09,1.89,1.857,3.878,2.317,5.899l-9.076,2.059   c-0.258-1.133-0.689-2.247-1.3-3.308c-0.612-1.058-1.362-1.988-2.216-2.777L88.845,20.836L88.845,20.836z M81.245,56.906   c-1.982,0.61-4.087,0.941-6.271,0.941c-2.182,0-4.287-0.331-6.268-0.941l2.755-8.891c1.11,0.342,2.291,0.527,3.513,0.527   c1.225,0,2.404-0.186,3.515-0.527L81.245,56.906L81.245,56.906z M18.897,16.446c1.981-0.612,4.086-0.942,6.269-0.942   s4.288,0.331,6.269,0.942l-2.755,8.893c-1.111-0.344-2.291-0.53-3.514-0.53s-2.403,0.186-3.514,0.53L18.897,16.446L18.897,16.446z    M18.989,36.677c0-3.414,2.765-6.18,6.177-6.18c3.412,0,6.178,2.766,6.178,6.18c0,3.412-2.767,6.177-6.178,6.177   C21.754,42.854,18.989,40.089,18.989,36.677L18.989,36.677z M46.333,41.065c-0.459,2.023-1.226,4.01-2.317,5.899   c-1.091,1.892-2.43,3.549-3.951,4.958l-6.322-6.832c0.853-0.789,1.604-1.719,2.214-2.777c0.612-1.059,1.042-2.174,1.299-3.307   L46.333,41.065L46.333,41.065z M11.296,52.516c-1.521-1.408-2.86-3.065-3.952-4.956c-1.091-1.892-1.858-3.878-2.317-5.901   l9.077-2.059c0.258,1.133,0.688,2.249,1.299,3.307c0.612,1.058,1.362,1.989,2.215,2.777L11.296,52.516L11.296,52.516z    M38.688,80.096c0-1.278,1.036-2.315,2.314-2.315s2.313,1.037,2.313,2.315c0,1.275-1.035,2.312-2.313,2.312   S38.688,81.371,38.688,80.096L38.688,80.096z M38.707,69.787c0-0.387,0.312-0.698,0.697-0.698h11.116   c0.386,0,0.697,0.312,0.697,0.698v5.552c0,0.387-0.312,0.699-0.697,0.699h-3.246c-0.021-0.612-0.278-1.162-0.684-1.564l2.87-3.737   l-0.554-0.426l-2.88,3.752c-0.318-0.167-0.681-0.26-1.065-0.26c-1.251,0-2.271,0.993-2.312,2.235h-3.246   c-0.385,0-0.697-0.312-0.697-0.699V69.787L38.707,69.787z M46.567,80.096c0-1.278,1.036-2.315,2.313-2.315   c1.278,0,2.313,1.037,2.313,2.315c0,1.275-1.035,2.312-2.313,2.312C47.603,82.408,46.567,81.371,46.567,80.096L46.567,80.096z    M30.398,80.096c0-1.278,1.036-2.315,2.313-2.315c1.278,0,2.313,1.037,2.313,2.315c0,1.275-1.036,2.312-2.313,2.312   C31.434,82.408,30.398,81.371,30.398,80.096L30.398,80.096z M22.539,69.787c0-0.387,0.312-0.698,0.697-0.698h11.116   c0.385,0,0.698,0.312,0.698,0.698v5.552c0,0.387-0.312,0.699-0.698,0.699h-3.246c-0.021-0.612-0.278-1.162-0.684-1.564l2.87-3.737   l-0.554-0.426l-2.88,3.752c-0.318-0.167-0.68-0.26-1.064-0.26c-1.251,0-2.271,0.993-2.312,2.235h-3.246   c-0.385,0-0.697-0.312-0.697-0.699V69.787L22.539,69.787z M22.52,80.096c0-1.278,1.036-2.315,2.313-2.315s2.313,1.037,2.313,2.315   c0,1.275-1.036,2.312-2.313,2.312S22.52,81.371,22.52,80.096L22.52,80.096z M56.624,78.393c0-0.771,0.625-1.396,1.396-1.396h0.138   v-7.958c0-0.931,1.396-0.931,1.396,0v7.958h0.157c0.771,0,1.396,0.625,1.396,1.396v1.773c0,0.771-0.625,1.395-1.396,1.395h-0.157   v0.791c0,0.931-1.396,0.931-1.396,0v-0.791h-0.138c-0.771,0-1.396-0.623-1.396-1.395V78.393L56.624,78.393z M64.764,73.339   c0-0.771,0.624-1.397,1.396-1.397h0.139v-2.902c0-0.931,1.395-0.931,1.395,0v2.902h0.157c0.771,0,1.397,0.626,1.397,1.397v1.771   c0,0.771-0.627,1.395-1.397,1.395h-0.157v5.848c0,0.931-1.395,0.931-1.395,0v-5.848h-0.139c-0.771,0-1.396-0.624-1.396-1.395   V73.339L64.764,73.339z M72.903,76.188c0-0.771,0.625-1.395,1.396-1.395h0.139v-5.755c0-0.931,1.396-0.931,1.396,0v5.755h0.156   c0.771,0,1.396,0.624,1.396,1.395v1.771c0,0.771-0.625,1.396-1.396,1.396h-0.156v2.995c0,0.931-1.396,0.931-1.396,0v-2.995h-0.139   c-0.771,0-1.396-0.626-1.396-1.396V76.188L72.903,76.188z"/>
</g>
</svg>