<svg xmlns="http://www.w3.org/2000/svg" xmlns:xlink="http://www.w3.org/1999/xlink" version="1.1" id="Layer_1" x="0px" y="0px" width="100px" height="100px" viewBox="0 0 100 100" enable-background="new 0 0 100 100" xml:space="preserve">
<g id="Captions">
</g>
<g id="Your_Icon">
</g>
<g id="Layer_3">
</g>
<g id="Layer_4">
	<path d="M51.32,79.838l-2.769-0.592V26.418c0-3.921,3.191-7.11,7.111-7.11h36.892v55.597H55.784   C54.244,74.904,52.21,77.848,51.32,79.838z M55.664,22.2c-2.325,0-4.219,1.893-4.219,4.218V74.36   c1.164-1.282,2.643-2.348,4.339-2.348h33.877V22.2H55.664z"/>
	<g>
		<path d="M50.193,24.972h-0.387C49.929,25.434,50,25.917,50,26.418C50,25.917,50.071,25.434,50.193,24.972z"/>
		<path d="M91.107,24.972v2.893h3.299v49.935H50.761C50.279,78.628,50,79.246,50,79.246s-0.279-0.618-0.761-1.447H5.595V27.864    h3.298v-2.893H2.7v55.72h94.6v-55.72H91.107z"/>
	</g>
	<path d="M48.681,79.838c-0.896-1.988-2.934-4.934-4.465-4.934H7.445V19.308h36.891c3.921,0,7.109,3.189,7.109,7.11v52.828   L48.681,79.838z M10.34,72.014h33.876c1.697,0,3.174,1.064,4.337,2.348V26.418c0-2.325-1.891-4.218-4.217-4.218H10.34V72.014z"/>
</g>
</svg>